<svg width="24" height="24" viewBox="0 0 24 24" fill="none" xmlns="http://www.w3.org/2000/svg">
<path d="M1.58071 0.00422903C1.58071 0.0972677 1.57655 0.160703 1.58071 0.224138C1.73887 1.98341 1.89704 3.74269 2.05105 5.5062C2.26749 8.00132 2.47976 10.4964 2.6962 12.9873C2.94178 15.787 3.19152 18.5824 3.42877 21.382C3.44542 21.585 3.51618 21.6738 3.70348 21.7245C6.36736 22.4688 9.0229 23.2174 11.6868 23.9574C11.8658 24.0082 12.0822 24.0167 12.2612 23.9659C14.9334 23.2216 17.6014 22.4646 20.2736 21.7161C20.4776 21.6569 20.5483 21.5638 20.565 21.3524C20.6482 20.2951 20.7481 19.2336 20.8397 18.1764C20.9937 16.4255 21.1435 14.6747 21.2975 12.9239C21.4765 10.8686 21.6597 8.81752 21.8386 6.76222C21.9718 5.23131 22.1133 3.70463 22.2465 2.17372C22.309 1.45479 22.3631 0.735851 22.4214 0H1.58071V0.00422903ZM18.4006 6.11095C18.2632 7.65877 18.1259 9.21082 17.9885 10.7586C17.8303 12.5391 17.6722 14.3195 17.514 16.0957C17.4682 16.6074 17.4016 17.1191 17.3891 17.635C17.3808 17.9099 17.2643 17.9818 17.0395 18.0453C15.4328 18.4851 13.8304 18.9376 12.2279 19.3859C12.1571 19.407 12.0905 19.4324 12.0198 19.4535C11.9948 19.4408 11.9698 19.4324 11.9407 19.4197C10.2258 18.946 8.51094 18.4682 6.79607 17.9861C6.72531 17.9649 6.63374 17.8507 6.62542 17.7704C6.50471 16.4509 6.39649 15.1315 6.27995 13.7866H8.89804C8.94382 14.3153 8.99377 14.8523 9.03539 15.3937C9.07285 15.8927 9.06869 15.8927 9.53071 16.0196C10.359 16.2437 11.1915 16.4636 12.0198 16.6835L12.0114 16.6624C12.9188 16.4171 13.8262 16.176 14.7336 15.9138C14.8168 15.8885 14.9126 15.7531 14.925 15.6601C14.9792 15.2541 15.0083 14.8439 15.0416 14.4379C15.0957 13.7824 15.1498 13.1269 15.2081 12.4418H12.0114L12.0198 12.4249C11.999 12.4249 11.974 12.4249 11.9532 12.4249H6.15924C6.08016 11.5495 6.00523 10.6825 5.92615 9.7902H11.9573C11.9781 9.7902 12.0031 9.7902 12.0239 9.7902L12.0156 9.77328H15.4412C15.5203 8.86404 15.5993 7.97595 15.6784 7.07094H12.0114L12.0198 7.05402C11.999 7.05402 11.974 7.05402 11.9532 7.05402C9.90115 7.05825 7.84913 7.05825 5.79712 7.06248C5.76798 7.06248 5.73885 7.04979 5.68474 7.03287C5.60982 6.17015 5.53073 5.30743 5.45581 4.41933H11.9532C11.974 4.41933 11.999 4.41933 12.0198 4.41933L12.0114 4.40242H18.5379C18.4921 4.99448 18.4464 5.55271 18.4006 6.11095Z" fill="#3DCFB6"/>
</svg>
